<?xml version="1.0" encoding="utf-8"?>
<!-- Generator: Adobe Illustrator 23.0.0, SVG Export Plug-In . SVG Version: 6.00 Build 0)  -->
<svg version="1.1" id="Слой_1" xmlns="http://www.w3.org/2000/svg" xmlns:xlink="http://www.w3.org/1999/xlink" x="0px" y="0px"
	 viewBox="0 0 1000 1000" style="enable-background:new 0 0 1000 1000;" xml:space="preserve">
<style type="text/css">
	.st0{fill:#A1B7C9;}
	.st1{fill:#8399AE;}
	.st2{fill:#E98A01;}
	.st3{fill:#E27B02;}
	.st4{fill:#EF9801;}
	.st5{fill:#F6A700;}
	.st6{fill:#FCB500;}
	.st7{fill:#8399AE;stroke:#19181F;stroke-width:15;stroke-miterlimit:10;}
	.st8{fill:#FFFFFF;stroke:#19181F;stroke-width:15;stroke-miterlimit:10;}
	.st9{fill:none;stroke:#000000;stroke-width:15;stroke-linecap:round;stroke-linejoin:round;stroke-miterlimit:10;}
	.st10{fill:#FFFFFF;stroke:#000000;stroke-width:15;stroke-linecap:round;stroke-linejoin:round;stroke-miterlimit:10;}
	.st11{fill:none;stroke:#19181F;stroke-width:15;stroke-linecap:round;stroke-linejoin:round;stroke-miterlimit:10;}
	.st12{fill:#FFFFFF;}
	.st13{fill:none;stroke:#FCB500;stroke-width:15;stroke-linecap:round;stroke-linejoin:round;stroke-miterlimit:10;}
	.st14{fill:none;stroke:#DC6D02;stroke-width:15;stroke-linecap:round;stroke-linejoin:round;stroke-miterlimit:10;}
	.st15{fill:#FFFFFF;stroke:#000000;stroke-width:15;stroke-miterlimit:10;}
	.st16{fill:none;stroke:#000000;stroke-width:5;stroke-linecap:round;stroke-linejoin:round;stroke-miterlimit:10;}
	.st17{fill:#FFFFFF;stroke:#000000;stroke-width:4;stroke-miterlimit:10;}
	.st18{fill:#DC6D02;}
	.st19{fill:#19181F;}
	.st20{fill:url(#SVGID_1_);}
	.st21{fill:url(#SVGID_2_);}
	.st22{fill:#BFD2E2;}
	.st23{fill:#12131C;}
	.st24{fill:#B47C4B;}
	.st25{fill:#171E13;}
	.st26{fill:#F2F1EF;}
	.st27{fill:#A37C82;}
	.st28{fill:#22161C;}
	.st29{fill:#E2AE6C;}
	.st30{fill:#FDDCA5;}
	.st31{fill:#BBC8BA;}
	.st32{fill:#2B331F;}
	.st33{fill:#546747;}
	.st34{fill:#FAB73D;}
	.st35{opacity:0.3;fill:url(#SVGID_3_);}
	.st36{opacity:0.3;fill:url(#SVGID_4_);}
	.st37{opacity:0.3;fill:url(#SVGID_5_);}
	.st38{opacity:0.3;fill:url(#SVGID_6_);}
	.st39{opacity:0.3;fill:url(#SVGID_7_);}
	.st40{opacity:0.3;fill:url(#SVGID_8_);}
	.st41{opacity:0.3;fill:url(#SVGID_9_);}
	.st42{opacity:0.3;fill:url(#SVGID_10_);}
	.st43{fill:#151515;}
	.st44{fill:#D13486;}
</style>
<g>
	<g>
		<path d="M656.42,163.58C614.77,121.94,559.4,99,500.5,99c-53.79,0-104.63,19.13-144.77,54.18c-3.82,3.31-7.53,6.78-11.15,10.4
			c-0.81,0.81-1.6,1.62-2.39,2.43c6.04,0.12,11.68,1.9,16.48,4.91c3.72-3.54,7.57-6.96,11.55-10.22
			C405.7,131.53,451.09,114,500.5,114C613.81,114,706,206.19,706,319.5v362c0,29.64-6.31,57.83-17.65,83.3
			c-2.1,4.71-4.36,9.33-6.8,13.84c4.24,3.93,7.44,8.96,9.12,14.64c3.17-5.36,6.09-10.85,8.77-16.45
			C713.56,747.45,721,715.05,721,681.5v-362C721,260.6,698.06,205.23,656.42,163.58z M630.78,840.3
			C595.3,869.47,549.91,887,500.5,887C387.19,887,295,794.81,295,681.5v-362c0-29.64,6.31-57.83,17.65-83.3
			c2.1-4.71,4.36-9.33,6.8-13.84c-4.24-3.93-7.44-8.96-9.12-14.64c-3.17,5.36-6.09,10.85-8.77,16.45
			C287.44,253.55,280,285.95,280,319.5v362c0,58.9,22.94,114.27,64.58,155.92C386.23,879.06,441.6,902,500.5,902
			c53.79,0,104.63-19.13,144.77-54.18c3.82-3.31,7.53-6.78,11.15-10.4c0.81-0.81,1.6-1.62,2.39-2.43
			c-6.04-0.12-11.68-1.9-16.48-4.91C638.61,833.62,634.76,837.04,630.78,840.3z"/>
	</g>
	<g>
		<path d="M500.5,129c-45.4,0-87.14,15.96-119.9,42.57c-3.92,3.18-7.71,6.52-11.37,10c2.94,4.8,4.67,10.41,4.76,16.41
			c4.19-4.36,8.6-8.51,13.22-12.41C417.81,159.64,457.36,144,500.5,144c96.77,0,175.5,78.73,175.5,175.5v362
			c0,26.23-5.79,51.14-16.15,73.51c-2.54,5.49-5.36,10.83-8.44,16c2.59-0.66,5.3-1.01,8.09-1.01c3.12,0,6.13,0.44,8.99,1.26
			c2.39-4.44,4.6-8.98,6.63-13.62C685.33,734.31,691,708.55,691,681.5v-362C691,214.46,605.54,129,500.5,129z M613.79,815.43
			C583.19,841.36,543.64,857,500.5,857C403.73,857,325,778.27,325,681.5v-362c0-26.23,5.79-51.14,16.15-73.51
			c2.54-5.49,5.36-10.83,8.44-16c-2.59,0.66-5.3,1.01-8.09,1.01c-3.12,0-6.13-0.44-8.99-1.26c-2.39,4.44-4.6,8.98-6.63,13.62
			C315.67,266.69,310,292.45,310,319.5v362C310,786.54,395.46,872,500.5,872c45.4,0,87.14-15.96,119.9-42.57
			c3.92-3.18,7.71-6.52,11.37-10c-2.94-4.8-4.67-10.41-4.76-16.41C622.82,807.38,618.41,811.53,613.79,815.43z"/>
	</g>
	<g>
		<path d="M493,607.5V600h-32.18c13.58,0,25.85,5.77,34.45,15h5.23C496.36,615,493,611.64,493,607.5z M500.5,541.68
			c-1.54-2.38-3.29-4.62-5.23-6.68c-8.6-9.23-20.87-15-34.45-15H420.5c-4.14,0-7.5,3.36-7.5,7.5v40.32
			c0,12.42,4.83,23.75,12.73,32.18c8.6,9.23,20.87,15,34.45,15h40.32c4.14,0,7.5-3.36,7.5-7.5v-40.32
			C508,557.8,505.24,549.04,500.5,541.68z M460.18,600c-17.74,0-32.18-14.44-32.18-32.18V535h32.82c17.74,0,32.18,14.44,32.18,32.18
			V600H460.18z M493,607.5V600h-32.18c13.58,0,25.85,5.77,34.45,15h5.23C496.36,615,493,611.64,493,607.5z"/>
	</g>
	<g>
		<path d="M505.73,535c-1.94,2.06-3.69,4.3-5.23,6.68c4.74,7.36,7.5,16.12,7.5,25.5c0-17.74,14.44-32.18,32.18-32.18H505.73z
			 M580.5,520h-40.32c-13.58,0-25.85,5.77-34.45,15c-1.94,2.06-3.69,4.3-5.23,6.68c-4.74,7.36-7.5,16.12-7.5,25.5v40.32
			c0,4.14,3.36,7.5,7.5,7.5h40.32c13.58,0,25.85-5.77,34.45-15c7.9-8.43,12.73-19.76,12.73-32.18V527.5
			C588,523.36,584.64,520,580.5,520z M508,600v-32.82c0-17.74,14.44-32.18,32.18-32.18H573v32.82c0,17.74-14.44,32.18-32.18,32.18
			H508z M505.73,535c-1.94,2.06-3.69,4.3-5.23,6.68c4.74,7.36,7.5,16.12,7.5,25.5c0-17.74,14.44-32.18,32.18-32.18H505.73z"/>
	</g>
	<g>
		<path d="M500.5,621.68c-1.54-2.38-3.29-4.62-5.23-6.68c-8.6-9.23-20.87-15-34.45-15H420.5c-4.14,0-7.5,3.36-7.5,7.5v40.32
			c0,26.01,21.17,47.18,47.18,47.18h40.32c4.14,0,7.5-3.36,7.5-7.5v-40.32C508,637.8,505.24,629.04,500.5,621.68z M428,647.82V615
			h32.82c17.74,0,32.18,14.44,32.18,32.18V680h-32.82C442.44,680,428,665.56,428,647.82z"/>
	</g>
	<g>
		<path d="M580.5,600h-40.32c-13.58,0-25.85,5.77-34.45,15c-1.94,2.06-3.69,4.3-5.23,6.68c-4.74,7.36-7.5,16.12-7.5,25.5v40.32
			c0,4.14,3.36,7.5,7.5,7.5h40.32c26.01,0,47.18-21.17,47.18-47.18V607.5C588,603.36,584.64,600,580.5,600z M573,647.82
			c0,17.74-14.44,32.18-32.18,32.18H508v-32.82c0-17.74,14.44-32.18,32.18-32.18H573V647.82z"/>
	</g>
	<g>
		<path d="M500.5,381.68c-8.41-13.03-23.06-21.68-39.68-21.68H420.5c-4.14,0-7.5,3.36-7.5,7.5v40.32c0,12.42,4.83,23.75,12.73,32.18
			c8.6,9.23,20.87,15,34.45,15h40.32c4.14,0,7.5-3.36,7.5-7.5v-40.32C508,397.8,505.24,389.04,500.5,381.68z M460.18,440
			c-17.74,0-32.18-14.44-32.18-32.18V375h32.82c17.74,0,32.18,14.44,32.18,32.18V440H460.18z"/>
	</g>
	<g>
		<path d="M580.5,360h-40.32c-16.62,0-31.27,8.65-39.68,21.68c-4.74,7.36-7.5,16.12-7.5,25.5v40.32c0,4.14,3.36,7.5,7.5,7.5h40.32
			c13.58,0,25.85-5.77,34.45-15c7.9-8.43,12.73-19.76,12.73-32.18V367.5C588,363.36,584.64,360,580.5,360z M508,440v-32.82
			c0-17.74,14.44-32.18,32.18-32.18H573v32.82c0,17.74-14.44,32.18-32.18,32.18H508z"/>
	</g>
	<g>
		<path d="M493,527.5V520h-32.18c13.58,0,25.85,5.77,34.45,15h5.23C496.36,535,493,531.64,493,527.5z M500.5,461.68
			c-1.54-2.38-3.29-4.62-5.23-6.68c-8.6-9.23-20.87-15-34.45-15H420.5c-4.14,0-7.5,3.36-7.5,7.5v40.32
			c0,12.42,4.83,23.75,12.73,32.18c8.6,9.23,20.87,15,34.45,15h40.32c4.14,0,7.5-3.36,7.5-7.5v-40.32
			C508,477.8,505.24,469.04,500.5,461.68z M460.18,520c-17.74,0-32.18-14.44-32.18-32.18V455h32.82c17.74,0,32.18,14.44,32.18,32.18
			V520H460.18z M493,527.5V520h-32.18c13.58,0,25.85,5.77,34.45,15h5.23C496.36,535,493,531.64,493,527.5z"/>
	</g>
	<g>
		<path d="M505.73,455c-1.94,2.06-3.69,4.3-5.23,6.68c4.74,7.36,7.5,16.12,7.5,25.5c0-17.74,14.44-32.18,32.18-32.18H505.73z
			 M580.5,440h-40.32c-13.58,0-25.85,5.77-34.45,15c-1.94,2.06-3.69,4.3-5.23,6.68c-4.74,7.36-7.5,16.12-7.5,25.5v40.32
			c0,4.14,3.36,7.5,7.5,7.5h40.32c13.58,0,25.85-5.77,34.45-15c7.9-8.43,12.73-19.76,12.73-32.18V447.5
			C588,443.36,584.64,440,580.5,440z M508,520v-32.82c0-17.74,14.44-32.18,32.18-32.18H573v32.82c0,17.74-14.44,32.18-32.18,32.18
			H508z M505.73,455c-1.94,2.06-3.69,4.3-5.23,6.68c4.74,7.36,7.5,16.12,7.5,25.5c0-17.74,14.44-32.18,32.18-32.18H505.73z"/>
	</g>
	<g>
		<path d="M500.5,338c-4.14,0-7.5-3.36-7.5-7.5v-102c0-4.14,3.36-7.5,7.5-7.5s7.5,3.36,7.5,7.5v102C508,334.64,504.64,338,500.5,338
			z"/>
	</g>
	<g>
		<path d="M540.5,338c-4.14,0-7.5-3.36-7.5-7.5v-57c0-4.14,3.36-7.5,7.5-7.5s7.5,3.36,7.5,7.5v57C548,334.64,544.64,338,540.5,338z"
			/>
	</g>
	<g>
		<path d="M460.5,338c-4.14,0-7.5-3.36-7.5-7.5v-57c0-4.14,3.36-7.5,7.5-7.5s7.5,3.36,7.5,7.5v57C468,334.64,464.64,338,460.5,338z"
			/>
	</g>
	<g>
		<path d="M460.5,250c-0.49,0-0.98-0.05-1.47-0.15c-0.47-0.09-0.95-0.24-1.4-0.43c-0.45-0.18-0.89-0.41-1.29-0.69
			c-0.42-0.27-0.8-0.58-1.14-0.93c-1.4-1.39-2.2-3.33-2.2-5.3c0-1.97,0.8-3.91,2.2-5.3c0.34-0.35,0.72-0.66,1.14-0.94
			c0.4-0.27,0.84-0.5,1.29-0.69c0.45-0.18,0.93-0.33,1.4-0.42c0.97-0.2,1.97-0.2,2.94,0c0.47,0.09,0.95,0.24,1.4,0.42
			c0.45,0.19,0.89,0.42,1.29,0.69c0.41,0.28,0.8,0.59,1.14,0.94c1.4,1.39,2.2,3.33,2.2,5.3c0,1.97-0.8,3.91-2.2,5.3
			c-0.34,0.35-0.73,0.66-1.14,0.93c-0.4,0.28-0.84,0.51-1.29,0.69c-0.45,0.19-0.93,0.34-1.4,0.43
			C461.48,249.95,460.99,250,460.5,250z"/>
	</g>
	<g>
		<path d="M540.5,250c-1.97,0-3.91-0.8-5.3-2.2c-0.35-0.34-0.66-0.73-0.94-1.14c-0.27-0.4-0.5-0.84-0.69-1.29
			c-0.18-0.45-0.33-0.93-0.42-1.4c-0.1-0.49-0.15-0.98-0.15-1.47s0.05-0.98,0.15-1.47c0.09-0.47,0.24-0.95,0.42-1.4
			c0.19-0.45,0.42-0.89,0.69-1.29c0.28-0.41,0.59-0.8,0.94-1.14c1.74-1.75,4.33-2.55,6.76-2.05c0.48,0.09,0.95,0.24,1.41,0.42
			c0.45,0.19,0.89,0.42,1.29,0.69c0.41,0.28,0.8,0.59,1.14,0.94c0.35,0.34,0.66,0.73,0.93,1.14c0.28,0.4,0.51,0.84,0.69,1.29
			c0.19,0.45,0.34,0.93,0.43,1.4c0.1,0.49,0.15,0.98,0.15,1.47s-0.05,0.98-0.15,1.47c-0.09,0.47-0.24,0.95-0.43,1.4
			c-0.18,0.45-0.41,0.89-0.69,1.29c-0.27,0.41-0.58,0.8-0.93,1.14c-0.34,0.35-0.73,0.66-1.14,0.93c-0.4,0.28-0.84,0.51-1.29,0.7
			c-0.46,0.18-0.93,0.33-1.41,0.42C541.48,249.95,540.99,250,540.5,250z"/>
	</g>
	<g>
		<path d="M500.5,206c-0.49,0-0.98-0.05-1.47-0.15c-0.47-0.09-0.95-0.24-1.4-0.43c-0.45-0.18-0.89-0.41-1.29-0.69
			c-0.41-0.27-0.8-0.58-1.15-0.93c-0.34-0.34-0.65-0.73-0.93-1.14c-0.27-0.4-0.5-0.84-0.69-1.29c-0.18-0.45-0.33-0.93-0.42-1.4
			c-0.1-0.49-0.15-0.98-0.15-1.47s0.05-0.98,0.15-1.47c0.09-0.47,0.24-0.95,0.42-1.4c0.19-0.45,0.42-0.89,0.69-1.29
			c0.28-0.41,0.59-0.8,0.93-1.14c0.35-0.35,0.74-0.66,1.15-0.94c0.4-0.27,0.84-0.5,1.29-0.69c0.45-0.18,0.93-0.33,1.4-0.42
			c0.97-0.2,1.97-0.2,2.94,0c0.47,0.09,0.95,0.24,1.4,0.42c0.45,0.19,0.89,0.42,1.29,0.69c0.41,0.28,0.8,0.59,1.14,0.94
			c0.35,0.34,0.66,0.73,0.94,1.14c0.27,0.4,0.5,0.84,0.69,1.29c0.18,0.45,0.33,0.93,0.42,1.4c0.1,0.49,0.15,0.98,0.15,1.47
			c0,1.97-0.8,3.9-2.2,5.3c-0.34,0.35-0.73,0.66-1.14,0.93c-0.4,0.28-0.84,0.51-1.29,0.69c-0.45,0.19-0.93,0.34-1.4,0.43
			C501.48,205.95,500.99,206,500.5,206z"/>
	</g>
	<g>
		<path d="M500.5,810c-4.14,0-7.5-3.36-7.5-7.5v-90c0-4.14,3.36-7.5,7.5-7.5s7.5,3.36,7.5,7.5v90C508,806.64,504.64,810,500.5,810z"
			/>
	</g>
	<g>
		<path d="M387.21,185.57c-4.62,3.9-9.03,8.05-13.22,12.41c0.01,0.17,0.01,0.35,0.01,0.52c0,15.13-10.39,27.87-24.41,31.49
			c-2.59,0.66-5.3,1.01-8.09,1.01c-3.12,0-6.13-0.44-8.99-1.26c-4.93-1.42-9.39-3.99-13.06-7.38c-2.44,4.51-4.7,9.13-6.8,13.84
			c3.96,3.05,8.42,5.48,13.23,7.16c4.79,1.67,9.92,2.6,15.27,2.63c0.12,0.01,0.23,0.01,0.35,0.01c26.19,0,47.5-21.31,47.5-47.5
			C389,194.02,388.38,189.68,387.21,185.57z M387.21,185.57c-1.43-5.06-3.68-9.78-6.61-14c-2.86-4.15-6.37-7.83-10.38-10.87
			c-4.31-3.29-9.2-5.86-14.49-7.52c-4.49-1.42-9.27-2.18-14.23-2.18c-26.19,0-47.5,21.31-47.5,47.5c0,9.45,2.78,18.27,7.56,25.67
			c2.97,4.63,6.73,8.7,11.09,12.03c3.96,3.05,8.42,5.48,13.23,7.16c4.79,1.67,9.92,2.6,15.27,2.63c0.12,0.01,0.23,0.01,0.35,0.01
			c26.19,0,47.5-21.31,47.5-47.5C389,194.02,388.38,189.68,387.21,185.57z M349.59,229.99c-2.59,0.66-5.3,1.01-8.09,1.01
			c-3.12,0-6.13-0.44-8.99-1.26c-4.93-1.42-9.39-3.99-13.06-7.38c-4.24-3.93-7.44-8.96-9.12-14.64c-0.87-2.92-1.33-6.02-1.33-9.22
			c0-17.92,14.58-32.5,32.5-32.5c0.23,0,0.46,0,0.69,0.01c6.04,0.12,11.68,1.9,16.48,4.91c4.29,2.68,7.92,6.33,10.56,10.65
			c2.94,4.8,4.67,10.41,4.76,16.41c0.01,0.17,0.01,0.35,0.01,0.52C374,213.63,363.61,226.37,349.59,229.99z"/>
	</g>
	<g>
		<path d="M699.44,776.83c-2.97-4.63-6.73-8.7-11.09-12.03c-3.96-3.05-8.42-5.48-13.23-7.16c-4.79-1.67-9.92-2.6-15.27-2.63
			c-0.12-0.01-0.23-0.01-0.35-0.01c-26.19,0-47.5,21.31-47.5,47.5c0,4.48,0.62,8.82,1.79,12.93c1.43,5.06,3.68,9.78,6.61,14
			c2.86,4.15,6.37,7.83,10.38,10.87c4.31,3.29,9.2,5.86,14.49,7.52c4.49,1.42,9.27,2.18,14.23,2.18c26.19,0,47.5-21.31,47.5-47.5
			C707,793.05,704.22,784.23,699.44,776.83z M659.5,835c-0.23,0-0.46,0-0.69-0.01c-6.04-0.12-11.68-1.9-16.48-4.91
			c-4.29-2.68-7.92-6.33-10.56-10.65c-2.94-4.8-4.67-10.41-4.76-16.41c-0.01-0.17-0.01-0.35-0.01-0.52
			c0-15.13,10.39-27.87,24.41-31.49c2.59-0.66,5.3-1.01,8.09-1.01c3.12,0,6.13,0.44,8.99,1.26c4.93,1.42,9.39,3.99,13.06,7.38
			c4.24,3.93,7.44,8.96,9.12,14.64c0.87,2.92,1.33,6.02,1.33,9.22C692,820.42,677.42,835,659.5,835z"/>
	</g>
</g>
</svg>
